<svg xmlns="http://www.w3.org/2000/svg" viewBox="0 0 1300 860" width="1300" height="860" font-family="'Segoe UI', Arial, sans-serif">
  <defs>
    <linearGradient id="bg" x1="0%" y1="0%" x2="100%" y2="100%">
      <stop offset="0%" style="stop-color:#07090f"/><stop offset="100%" style="stop-color:#0b1220"/>
    </linearGradient>
    <linearGradient id="layerBlue" x1="0%" y1="0%" x2="0%" y2="100%">
      <stop offset="0%" style="stop-color:#0d2545"/><stop offset="100%" style="stop-color:#091830"/>
    </linearGradient>
    <linearGradient id="layerGreen" x1="0%" y1="0%" x2="0%" y2="100%">
      <stop offset="0%" style="stop-color:#082b1a"/><stop offset="100%" style="stop-color:#051510"/>
    </linearGradient>
    <linearGradient id="layerPurple" x1="0%" y1="0%" x2="0%" y2="100%">
      <stop offset="0%" style="stop-color:#1e0a2e"/><stop offset="100%" style="stop-color:#120618"/>
    </linearGradient>
    <linearGradient id="layerAmber" x1="0%" y1="0%" x2="0%" y2="100%">
      <stop offset="0%" style="stop-color:#231800"/><stop offset="100%" style="stop-color:#150f00"/>
    </linearGradient>
    <filter id="glow">
      <feGaussianBlur stdDeviation="2.5" result="blur"/>
      <feMerge><feMergeNode in="blur"/><feMergeNode in="SourceGraphic"/></feMerge>
    </filter>
    <filter id="shadow">
      <feDropShadow dx="0" dy="3" stdDeviation="5" flood-color="#000" flood-opacity="0.6"/>
    </filter>
    <marker id="arrowB" markerWidth="9" markerHeight="7" refX="8" refY="3.5" orient="auto">
      <polygon points="0 0, 9 3.5, 0 7" fill="#3b82f6"/>
    </marker>
    <marker id="arrowP" markerWidth="9" markerHeight="7" refX="8" refY="3.5" orient="auto">
      <polygon points="0 0, 9 3.5, 0 7" fill="#a855f7"/>
    </marker>
    <marker id="arrowA" markerWidth="9" markerHeight="7" refX="8" refY="3.5" orient="auto">
      <polygon points="0 0, 9 3.5, 0 7" fill="#f59e0b"/>
    </marker>
  </defs>

  <!-- Background -->
  <rect width="1300" height="860" fill="url(#bg)"/>
  <g opacity="0.03" stroke="#6b7280" stroke-width="1">
    <line x1="0" y1="80" x2="1300" y2="80"/><line x1="0" y1="160" x2="1300" y2="160"/>
    <line x1="0" y1="240" x2="1300" y2="240"/><line x1="0" y1="320" x2="1300" y2="320"/>
    <line x1="0" y1="400" x2="1300" y2="400"/><line x1="0" y1="480" x2="1300" y2="480"/>
    <line x1="0" y1="560" x2="1300" y2="560"/><line x1="0" y1="640" x2="1300" y2="640"/>
    <line x1="0" y1="720" x2="1300" y2="720"/><line x1="0" y1="800" x2="1300" y2="800"/>
    <line x1="130" y1="0" x2="130" y2="860"/><line x1="260" y1="0" x2="260" y2="860"/>
    <line x1="390" y1="0" x2="390" y2="860"/><line x1="520" y1="0" x2="520" y2="860"/>
    <line x1="650" y1="0" x2="650" y2="860"/><line x1="780" y1="0" x2="780" y2="860"/>
    <line x1="910" y1="0" x2="910" y2="860"/><line x1="1040" y1="0" x2="1040" y2="860"/>
    <line x1="1170" y1="0" x2="1170" y2="860"/>
  </g>

  <!-- TITLE -->
  <text x="650" y="38" text-anchor="middle" font-size="28" font-weight="800" fill="#ffffff" letter-spacing="3" filter="url(#glow)">LOGISTICS AI PLATFORM</text>
  <text x="650" y="58" text-anchor="middle" font-size="11" fill="#4b5563" letter-spacing="6">S Y S T E M   A R C H I T E C T U R E</text>

  <!-- ══════════════════════════════════════════════════════════════════ -->
  <!-- LAYER 1 — DATA                                                    -->
  <!-- ══════════════════════════════════════════════════════════════════ -->
  <rect x="20" y="72" width="1260" height="178" rx="14" fill="url(#layerBlue)" stroke="#3b82f6" stroke-width="2" filter="url(#shadow)"/>

  <!-- LEFT SIDEBAR — label + icon stacked cleanly -->
  <rect x="20" y="72" width="168" height="178" rx="14" fill="#0a1e38" opacity="0.6"/>
  <rect x="20" y="72" width="168" height="36" rx="10" fill="#3b82f6"/>
  <!-- ensure top-right corners of pill are square where it meets the box -->
  <rect x="156" y="72" width="32" height="36" fill="#3b82f6"/>
  <text x="104" y="96" text-anchor="middle" font-size="13" font-weight="800" fill="#ffffff" letter-spacing="2">DATA LAYER</text>

  <text x="104" y="148" text-anchor="middle" font-size="34" fill="#3ecf8e" filter="url(#glow)">⬡</text>
  <text x="104" y="170" text-anchor="middle" font-size="11" fill="#3ecf8e" font-weight="700" letter-spacing="1">SUPABASE</text>
  <text x="104" y="185" text-anchor="middle" font-size="10" fill="#4b5563">PostgreSQL 17</text>
  <text x="104" y="200" text-anchor="middle" font-size="9.5" fill="#374151">14 tables total</text>

  <!-- Vertical divider -->
  <line x1="192" y1="82" x2="192" y2="242" stroke="#1e3a5f" stroke-width="1.5"/>

  <!-- Table cards — row 1 (core tables) -->
  <!-- trips -->
  <rect x="202" y="86" width="120" height="50" rx="7" fill="#0a1e38" stroke="#3b82f6" stroke-width="1.2"/>
  <text x="262" y="107" text-anchor="middle" font-size="12" font-weight="700" fill="#60a5fa">trips</text>
  <text x="262" y="124" text-anchor="middle" font-size="10" fill="#4b5563">85,410 rows</text>

  <!-- drivers -->
  <rect x="330" y="86" width="120" height="50" rx="7" fill="#0a1e38" stroke="#3b82f6" stroke-width="1.2"/>
  <text x="390" y="107" text-anchor="middle" font-size="12" font-weight="700" fill="#60a5fa">drivers</text>
  <text x="390" y="124" text-anchor="middle" font-size="10" fill="#4b5563">~200 rows</text>

  <!-- trucks -->
  <rect x="458" y="86" width="120" height="50" rx="7" fill="#0a1e38" stroke="#3b82f6" stroke-width="1.2"/>
  <text x="518" y="107" text-anchor="middle" font-size="12" font-weight="700" fill="#60a5fa">trucks</text>
  <text x="518" y="124" text-anchor="middle" font-size="10" fill="#4b5563">92 rows</text>

  <!-- loads -->
  <rect x="586" y="86" width="120" height="50" rx="7" fill="#0a1e38" stroke="#3b82f6" stroke-width="1.2"/>
  <text x="646" y="107" text-anchor="middle" font-size="12" font-weight="700" fill="#60a5fa">loads</text>
  <text x="646" y="124" text-anchor="middle" font-size="10" fill="#4b5563">~85K rows</text>

  <!-- fuel_purchases -->
  <rect x="714" y="86" width="148" height="50" rx="7" fill="#0a1e38" stroke="#3b82f6" stroke-width="1.2"/>
  <text x="788" y="107" text-anchor="middle" font-size="12" font-weight="700" fill="#60a5fa">fuel_purchases</text>
  <text x="788" y="124" text-anchor="middle" font-size="10" fill="#4b5563">196,442 rows</text>

  <!-- maintenance_records -->
  <rect x="870" y="86" width="168" height="50" rx="7" fill="#0a1e38" stroke="#3b82f6" stroke-width="1.2"/>
  <text x="954" y="107" text-anchor="middle" font-size="12" font-weight="700" fill="#60a5fa">maintenance_records</text>
  <text x="954" y="124" text-anchor="middle" font-size="10" fill="#4b5563">2,920 rows</text>

  <!-- delivery_events -->
  <rect x="1046" y="86" width="148" height="50" rx="7" fill="#0a1e38" stroke="#3b82f6" stroke-width="1.2"/>
  <text x="1120" y="107" text-anchor="middle" font-size="12" font-weight="700" fill="#60a5fa">delivery_events</text>
  <text x="1120" y="124" text-anchor="middle" font-size="10" fill="#4b5563">~170K rows</text>

  <!-- customers + routes -->
  <rect x="1202" y="86" width="68" height="50" rx="7" fill="#0a1e38" stroke="#3b82f6" stroke-width="1.2"/>
  <text x="1236" y="104" text-anchor="middle" font-size="10" font-weight="700" fill="#60a5fa">customers</text>
  <text x="1236" y="116" text-anchor="middle" font-size="9" fill="#60a5fa">routes + more</text>
  <text x="1236" y="128" text-anchor="middle" font-size="9" fill="#4b5563">~500 rows</text>

  <!-- AI Prediction tables row 2 -->
  <rect x="202" y="152" width="172" height="38" rx="7" fill="#060f1e" stroke="#1d4ed8" stroke-width="1.2" stroke-dasharray="5,3"/>
  <text x="288" y="169" text-anchor="middle" font-size="11" font-weight="600" fill="#93c5fd">trip_predictions</text>
  <text x="288" y="183" text-anchor="middle" font-size="9.5" fill="#374151">AI output · live</text>

  <rect x="384" y="152" width="172" height="38" rx="7" fill="#060f1e" stroke="#1d4ed8" stroke-width="1.2" stroke-dasharray="5,3"/>
  <text x="470" y="169" text-anchor="middle" font-size="11" font-weight="600" fill="#93c5fd">fuel_predictions</text>
  <text x="470" y="183" text-anchor="middle" font-size="9.5" fill="#374151">AI output · live</text>

  <rect x="566" y="152" width="210" height="38" rx="7" fill="#060f1e" stroke="#1d4ed8" stroke-width="1.2" stroke-dasharray="5,3"/>
  <text x="671" y="169" text-anchor="middle" font-size="11" font-weight="600" fill="#93c5fd">maintenance_predictions</text>
  <text x="671" y="183" text-anchor="middle" font-size="9.5" fill="#374151">AI output · live</text>

  <text x="800" y="174" font-size="10.5" fill="#374151">← AI predictions written back to DB in real time</text>

  <!-- Arrow Data → API -->
  <line x1="650" y1="250" x2="650" y2="284" stroke="#3b82f6" stroke-width="2.5" marker-end="url(#arrowB)" stroke-dasharray="6,3"/>
  <rect x="660" y="258" width="58" height="18" rx="5" fill="#0d2545"/>
  <text x="689" y="271" text-anchor="middle" font-size="10" fill="#3b82f6" font-weight="600">HTTPS</text>

  <!-- ══════════════════════════════════════════════════════════════════ -->
  <!-- LAYER 2 — API                                                     -->
  <!-- ══════════════════════════════════════════════════════════════════ -->
  <rect x="20" y="288" width="1260" height="168" rx="14" fill="url(#layerGreen)" stroke="#10b981" stroke-width="2" filter="url(#shadow)"/>

  <rect x="20" y="288" width="168" height="168" rx="14" fill="#05180f" opacity="0.6"/>
  <rect x="20" y="288" width="168" height="36" rx="10" fill="#10b981"/>
  <rect x="156" y="288" width="32" height="36" fill="#10b981"/>
  <text x="104" y="312" text-anchor="middle" font-size="13" font-weight="800" fill="#ffffff" letter-spacing="2">API LAYER</text>

  <text x="104" y="362" text-anchor="middle" font-size="32" fill="#10b981" filter="url(#glow)">⚡</text>
  <text x="104" y="382" text-anchor="middle" font-size="10" fill="#10b981" font-weight="700" letter-spacing="1">EDGE FUNCTIONS</text>
  <text x="104" y="396" text-anchor="middle" font-size="10" fill="#4b5563">Deno · TypeScript</text>
  <text x="104" y="412" text-anchor="middle" font-size="9.5" fill="#374151">Supabase hosted</text>

  <line x1="192" y1="298" x2="192" y2="448" stroke="#082b1a" stroke-width="1.5"/>

  <!-- Analytics box -->
  <rect x="202" y="300" width="510" height="144" rx="10" fill="#04110a" stroke="#10b981" stroke-width="1.5"/>
  <text x="457" y="322" text-anchor="middle" font-size="13.5" font-weight="700" fill="#10b981">/analytics — 15 pre-built queries</text>
  <line x1="202" y1="328" x2="712" y2="328" stroke="#0a2e18" stroke-width="1"/>
  <g font-size="11" fill="#6ee7b7">
    <text x="220" y="348">?query=kpi_summary</text>
    <text x="220" y="366">?query=revenue_by_month</text>
    <text x="220" y="384">?query=driver_scorecard</text>
    <text x="220" y="402">?query=route_profitability</text>
    <text x="220" y="420">?query=all  ← full data bundle</text>
    <text x="430" y="348">?query=customer_revenue</text>
    <text x="430" y="366">?query=safety_by_type</text>
    <text x="430" y="384">?query=fleet_utilization</text>
    <text x="430" y="402">?query=fuel_monthly</text>
    <text x="430" y="420" fill="#374151">…and more</text>
  </g>

  <!-- Predict box -->
  <rect x="724" y="300" width="556" height="144" rx="10" fill="#04110a" stroke="#10b981" stroke-width="1.5"/>
  <text x="1002" y="322" text-anchor="middle" font-size="13.5" font-weight="700" fill="#10b981">/predict — Live ML Scoring API</text>
  <line x1="724" y1="328" x2="1280" y2="328" stroke="#0a2e18" stroke-width="1"/>
  <g font-size="11" fill="#6ee7b7">
    <text x="742" y="348">?model=late_delivery    →  {late_prob, risk_level}</text>
    <text x="742" y="366">?model=fuel_cost         →  {predicted_cost $}</text>
    <text x="742" y="384">?model=maintenance       →  {reactive_prob, risk_level}</text>
    <text x="742" y="402">?model=batch_score_trips →  scores N trips → saves to DB</text>
    <text x="742" y="420" fill="#374151">GET (no params)  →  Returns full API documentation</text>
  </g>

  <!-- Arrows API → ML -->
  <line x1="450" y1="456" x2="450" y2="492" stroke="#a855f7" stroke-width="2.5" marker-end="url(#arrowP)" stroke-dasharray="6,3"/>
  <line x1="1002" y1="456" x2="1002" y2="492" stroke="#a855f7" stroke-width="2.5" marker-end="url(#arrowP)" stroke-dasharray="6,3"/>

  <!-- ══════════════════════════════════════════════════════════════════ -->
  <!-- LAYER 3 — ML                                                      -->
  <!-- ══════════════════════════════════════════════════════════════════ -->
  <rect x="20" y="496" width="1260" height="172" rx="14" fill="url(#layerPurple)" stroke="#a855f7" stroke-width="2" filter="url(#shadow)"/>

  <rect x="20" y="496" width="168" height="172" rx="14" fill="#100520" opacity="0.6"/>
  <rect x="20" y="496" width="168" height="36" rx="10" fill="#a855f7"/>
  <rect x="156" y="496" width="32" height="36" fill="#a855f7"/>
  <text x="104" y="520" text-anchor="middle" font-size="13" font-weight="800" fill="#ffffff" letter-spacing="2">ML LAYER</text>

  <text x="104" y="568" text-anchor="middle" font-size="30" fill="#a855f7" filter="url(#glow)">🧠</text>
  <text x="104" y="588" text-anchor="middle" font-size="10" fill="#a855f7" font-weight="700" letter-spacing="1">IBM WATSONX</text>
  <text x="104" y="602" text-anchor="middle" font-size="10" fill="#4b5563">AI Studio</text>
  <text x="104" y="618" text-anchor="middle" font-size="9.5" fill="#374151">Python · scikit-learn</text>

  <line x1="192" y1="506" x2="192" y2="660" stroke="#1e0a2e" stroke-width="1.5"/>

  <!-- Model 1 -->
  <rect x="202" y="508" width="378" height="148" rx="10" fill="#0c041a" stroke="#a855f7" stroke-width="1.5"/>
  <text x="391" y="530" text-anchor="middle" font-size="13" font-weight="700" fill="#c084fc">Late Delivery Predictor</text>
  <line x1="202" y1="536" x2="580" y2="536" stroke="#2d0a45" stroke-width="1"/>
  <g font-size="11" fill="#d8b4fe">
    <text x="220" y="556">Algorithm:   Random Forest (class_weight=balanced)</text>
    <text x="220" y="574">Target:        late  (0 = on-time  ·  1 = late)</text>
    <text x="220" y="592">Features:    distance, MPG, duration, idle time,</text>
    <text x="220" y="610">                  weight, driver experience, day / month</text>
    <text x="220" y="632" fill="#7c3aed" font-weight="700">→ /predict?model=late_delivery</text>
  </g>

  <!-- Model 2 -->
  <rect x="592" y="508" width="378" height="148" rx="10" fill="#0c041a" stroke="#a855f7" stroke-width="1.5"/>
  <text x="781" y="530" text-anchor="middle" font-size="13" font-weight="700" fill="#c084fc">Fuel Cost Predictor</text>
  <line x1="592" y1="536" x2="970" y2="536" stroke="#2d0a45" stroke-width="1"/>
  <g font-size="11" fill="#d8b4fe">
    <text x="610" y="556">Algorithm:   Gradient Boosting Regressor</text>
    <text x="610" y="574">Target:        total_cost ($)</text>
    <text x="610" y="592">Features:    gallons, price/gal, fuel type,</text>
    <text x="610" y="610">                  truck model year, tank capacity</text>
    <text x="610" y="632" fill="#7c3aed" font-weight="700">→ /predict?model=fuel_cost</text>
  </g>

  <!-- Model 3 -->
  <rect x="982" y="508" width="298" height="148" rx="10" fill="#0c041a" stroke="#a855f7" stroke-width="1.5"/>
  <text x="1131" y="530" text-anchor="middle" font-size="13" font-weight="700" fill="#c084fc">Maintenance Risk Predictor</text>
  <line x1="982" y1="536" x2="1280" y2="536" stroke="#2d0a45" stroke-width="1"/>
  <g font-size="11" fill="#d8b4fe">
    <text x="998" y="556">Algorithm:   Random Forest (balanced)</text>
    <text x="998" y="574">Target:        is_unplanned  (reactive=1)</text>
    <text x="998" y="592">Features:    odometer, days since service,</text>
    <text x="998" y="610">                  prior count, labor / downtime hrs</text>
    <text x="998" y="632" fill="#7c3aed" font-weight="700">→ /predict?model=maintenance</text>
  </g>

  <!-- Arrow ML → Presentation -->
  <line x1="650" y1="668" x2="650" y2="702" stroke="#f59e0b" stroke-width="2.5" marker-end="url(#arrowA)" stroke-dasharray="6,3"/>

  <!-- ══════════════════════════════════════════════════════════════════ -->
  <!-- LAYER 4 — PRESENTATION                                           -->
  <!-- ══════════════════════════════════════════════════════════════════ -->
  <rect x="20" y="706" width="1260" height="130" rx="14" fill="url(#layerAmber)" stroke="#f59e0b" stroke-width="2" filter="url(#shadow)"/>

  <rect x="20" y="706" width="168" height="130" rx="14" fill="#130e00" opacity="0.6"/>
  <rect x="20" y="706" width="168" height="36" rx="10" fill="#f59e0b"/>
  <rect x="156" y="706" width="32" height="36" fill="#f59e0b"/>
  <text x="104" y="730" text-anchor="middle" font-size="11.5" font-weight="800" fill="#000000" letter-spacing="1">PRESENTATION</text>
  <text x="104" y="745" text-anchor="middle" font-size="10" font-weight="700" fill="#000000" letter-spacing="1">LAYER</text>

  <text x="104" y="784" text-anchor="middle" font-size="28" fill="#f59e0b" filter="url(#glow)">📊</text>
  <text x="104" y="802" text-anchor="middle" font-size="10" fill="#f59e0b" font-weight="700" letter-spacing="1">DASHBOARDS</text>

  <line x1="192" y1="716" x2="192" y2="828" stroke="#231800" stroke-width="1.5"/>

  <!-- HTML Dashboard — star highlighted -->
  <rect x="202" y="716" width="300" height="110" rx="10" fill="#130e00" stroke="#f59e0b" stroke-width="2.5"/>
  <text x="352" y="738" text-anchor="middle" font-size="13" font-weight="700" fill="#fbbf24">⭐ HTML Dashboard</text>
  <text x="352" y="752" text-anchor="middle" font-size="9.5" fill="#92400e">logistics_dashboard.html</text>
  <line x1="202" y1="756" x2="502" y2="756" stroke="#2d1900" stroke-width="1"/>
  <g font-size="10.5" fill="#fde68a">
    <text x="218" y="772">• 7 tabs: KPI, Drivers, Routes, Fleet,</text>
    <text x="218" y="787">   Fuel, Customers, Safety</text>
    <text x="218" y="802">• Chart.js · Dark theme · No server needed</text>
    <text x="218" y="817">• Live on GitHub Pages 🌐</text>
  </g>

  <!-- Plotly Notebook -->
  <rect x="514" y="716" width="278" height="110" rx="10" fill="#130e00" stroke="#f59e0b" stroke-width="1.5"/>
  <text x="653" y="738" text-anchor="middle" font-size="13" font-weight="700" fill="#fbbf24">Plotly Notebook</text>
  <text x="653" y="752" text-anchor="middle" font-size="9.5" fill="#92400e">02_interactive_dashboard.ipynb</text>
  <line x1="514" y1="756" x2="792" y2="756" stroke="#2d1900" stroke-width="1"/>
  <g font-size="10.5" fill="#fde68a">
    <text x="530" y="772">• Interactive Plotly charts</text>
    <text x="530" y="787">• Live data from Supabase API</text>
    <text x="530" y="802">• Drill-down filters</text>
    <text x="530" y="817">• Runs in IBM Watsonx Studio</text>
  </g>

  <!-- Live REST API -->
  <rect x="804" y="716" width="278" height="110" rx="10" fill="#130e00" stroke="#f59e0b" stroke-width="1.5"/>
  <text x="943" y="738" text-anchor="middle" font-size="13" font-weight="700" fill="#fbbf24">Live REST API</text>
  <text x="943" y="752" text-anchor="middle" font-size="9.5" fill="#92400e">/functions/v1/predict</text>
  <line x1="804" y1="756" x2="1082" y2="756" stroke="#2d1900" stroke-width="1"/>
  <g font-size="10.5" fill="#fde68a">
    <text x="820" y="772">• late_delivery  →  risk score %</text>
    <text x="820" y="787">• fuel_cost       →  predicted $</text>
    <text x="820" y="802">• maintenance    →  reactive risk</text>
    <text x="820" y="817">• batch_score    →  saves to DB</text>
  </g>

  <!-- GitHub Pages -->
  <rect x="1094" y="716" width="186" height="110" rx="10" fill="#130e00" stroke="#f59e0b" stroke-width="1.5"/>
  <text x="1187" y="738" text-anchor="middle" font-size="13" font-weight="700" fill="#fbbf24">GitHub Pages</text>
  <text x="1187" y="752" text-anchor="middle" font-size="9.5" fill="#92400e">Free live hosting</text>
  <line x1="1094" y1="756" x2="1280" y2="756" stroke="#2d1900" stroke-width="1"/>
  <g font-size="10.5" fill="#fde68a">
    <text x="1108" y="772">• Public live URL</text>
    <text x="1108" y="787">• Share on LinkedIn</text>
    <text x="1108" y="802">• Auto-deploy from</text>
    <text x="1108" y="817">  GitHub repo</text>
  </g>

  <!-- Footer -->
  <text x="650" y="852" text-anchor="middle" font-size="10" fill="#1f2937" letter-spacing="2.5">SUPABASE  ·  IBM WATSONX  ·  PYTHON  ·  CHART.JS  ·  $262M REVENUE TRACKED  ·  85K TRIPS  ·  3 LIVE AI MODELS</text>
</svg>
